<mxfile host="app.diagrams.net" modified="2023-01-21T03:32:32.101Z" agent="5.0 (Windows NT 10.0; Win64; x64) AppleWebKit/537.36 (KHTML, like Gecko) Chrome/111.0.0.0 Safari/537.36 Edg/111.0.0.0" version="20.8.0" etag="TKGeT2q02ooC6Jw2qXZ4" type="github">
  <diagram id="Vt5FtEahTZ07boKOIibK" name="Page-1">
    <mxGraphModel dx="1156" dy="668" grid="1" gridSize="10" guides="1" tooltips="1" connect="1" arrows="1" fold="1" page="1" pageScale="1" pageWidth="1100" pageHeight="850" math="0" shadow="0">
      <root>
        <mxCell id="0" />
        <mxCell id="1" parent="0" />
        <mxCell id="rUgsRewU7eDKofU_iwxV-1" value="" style="endArrow=none;html=1;rounded=0;strokeWidth=3;" edge="1" parent="1">
          <mxGeometry width="50" height="50" relative="1" as="geometry">
            <mxPoint x="460" y="120" as="sourcePoint" />
            <mxPoint x="630" y="120" as="targetPoint" />
          </mxGeometry>
        </mxCell>
        <mxCell id="rUgsRewU7eDKofU_iwxV-2" value="&lt;font face=&quot;Times New Roman&quot;&gt;Ali Barqi Fairuz Rachmat&lt;/font&gt;" style="text;html=1;align=center;verticalAlign=middle;resizable=0;points=[];autosize=1;strokeColor=none;fillColor=none;" vertex="1" parent="1">
          <mxGeometry x="470" y="120" width="150" height="30" as="geometry" />
        </mxCell>
        <mxCell id="rUgsRewU7eDKofU_iwxV-3" value="&lt;font face=&quot;Times New Roman&quot;&gt;&lt;span style=&quot;font-size: 16px;&quot;&gt;Ketua Tim KRAI 2023&lt;/span&gt;&lt;/font&gt;" style="text;html=1;align=center;verticalAlign=middle;resizable=0;points=[];autosize=1;strokeColor=none;fillColor=none;" vertex="1" parent="1">
          <mxGeometry x="460" y="90" width="170" height="30" as="geometry" />
        </mxCell>
        <mxCell id="rUgsRewU7eDKofU_iwxV-4" value="" style="endArrow=none;html=1;rounded=0;strokeWidth=1;fontFamily=Times New Roman;fontSize=16;" edge="1" parent="1">
          <mxGeometry width="50" height="50" relative="1" as="geometry">
            <mxPoint x="544.58" y="220" as="sourcePoint" />
            <mxPoint x="544.58" y="150" as="targetPoint" />
          </mxGeometry>
        </mxCell>
        <mxCell id="rUgsRewU7eDKofU_iwxV-5" value="" style="endArrow=none;html=1;rounded=0;strokeWidth=3;" edge="1" parent="1">
          <mxGeometry width="50" height="50" relative="1" as="geometry">
            <mxPoint x="560" y="220" as="sourcePoint" />
            <mxPoint x="730" y="220" as="targetPoint" />
          </mxGeometry>
        </mxCell>
        <mxCell id="rUgsRewU7eDKofU_iwxV-6" value="&lt;font face=&quot;Times New Roman&quot;&gt;Hasna Azkiya Nurkamila&lt;/font&gt;" style="text;html=1;align=center;verticalAlign=middle;resizable=0;points=[];autosize=1;strokeColor=none;fillColor=none;" vertex="1" parent="1">
          <mxGeometry x="575" y="220" width="140" height="30" as="geometry" />
        </mxCell>
        <mxCell id="rUgsRewU7eDKofU_iwxV-7" value="&lt;font style=&quot;font-size: 16px;&quot; face=&quot;Times New Roman&quot;&gt;Sekretaris 1&lt;/font&gt;" style="text;html=1;align=center;verticalAlign=middle;resizable=0;points=[];autosize=1;strokeColor=none;fillColor=none;" vertex="1" parent="1">
          <mxGeometry x="595" y="190" width="100" height="30" as="geometry" />
        </mxCell>
        <mxCell id="rUgsRewU7eDKofU_iwxV-8" value="" style="endArrow=none;html=1;rounded=0;strokeWidth=3;" edge="1" parent="1">
          <mxGeometry width="50" height="50" relative="1" as="geometry">
            <mxPoint x="360" y="245" as="sourcePoint" />
            <mxPoint x="530" y="245" as="targetPoint" />
          </mxGeometry>
        </mxCell>
        <mxCell id="rUgsRewU7eDKofU_iwxV-9" value="&lt;font face=&quot;Times New Roman&quot;&gt;Satyo Septiyanto&lt;/font&gt;" style="text;html=1;align=center;verticalAlign=middle;resizable=0;points=[];autosize=1;strokeColor=none;fillColor=none;" vertex="1" parent="1">
          <mxGeometry x="390" y="245" width="110" height="30" as="geometry" />
        </mxCell>
        <mxCell id="rUgsRewU7eDKofU_iwxV-10" value="&lt;font face=&quot;Times New Roman&quot;&gt;&lt;span style=&quot;font-size: 16px;&quot;&gt;Sekretaris 2&lt;/span&gt;&lt;/font&gt;" style="text;html=1;align=center;verticalAlign=middle;resizable=0;points=[];autosize=1;strokeColor=none;fillColor=none;" vertex="1" parent="1">
          <mxGeometry x="395" y="215" width="100" height="30" as="geometry" />
        </mxCell>
        <mxCell id="rUgsRewU7eDKofU_iwxV-11" value="" style="endArrow=none;html=1;rounded=0;strokeWidth=1;fontFamily=Times New Roman;fontSize=16;" edge="1" parent="1">
          <mxGeometry width="50" height="50" relative="1" as="geometry">
            <mxPoint x="544.5799999999999" y="330" as="sourcePoint" />
            <mxPoint x="544.5799999999999" y="260" as="targetPoint" />
          </mxGeometry>
        </mxCell>
        <mxCell id="rUgsRewU7eDKofU_iwxV-12" value="" style="endArrow=none;html=1;rounded=0;strokeWidth=3;" edge="1" parent="1">
          <mxGeometry width="50" height="50" relative="1" as="geometry">
            <mxPoint x="730" y="370" as="sourcePoint" />
            <mxPoint x="900" y="370" as="targetPoint" />
          </mxGeometry>
        </mxCell>
        <mxCell id="rUgsRewU7eDKofU_iwxV-13" value="&lt;font face=&quot;Times New Roman&quot;&gt;Hafizh Ahmad Al Mushoffi&lt;/font&gt;" style="text;html=1;align=center;verticalAlign=middle;resizable=0;points=[];autosize=1;strokeColor=none;fillColor=none;" vertex="1" parent="1">
          <mxGeometry x="735" y="380" width="160" height="30" as="geometry" />
        </mxCell>
        <mxCell id="rUgsRewU7eDKofU_iwxV-14" value="&lt;font face=&quot;Times New Roman&quot;&gt;&lt;span style=&quot;font-size: 16px;&quot;&gt;Electric - Programming&lt;/span&gt;&lt;/font&gt;" style="text;html=1;align=center;verticalAlign=middle;resizable=0;points=[];autosize=1;strokeColor=none;fillColor=none;" vertex="1" parent="1">
          <mxGeometry x="730" y="340" width="170" height="30" as="geometry" />
        </mxCell>
        <mxCell id="rUgsRewU7eDKofU_iwxV-15" value="" style="endArrow=none;html=1;rounded=0;strokeWidth=1;fontFamily=Times New Roman;fontSize=16;" edge="1" parent="1">
          <mxGeometry width="50" height="50" relative="1" as="geometry">
            <mxPoint x="276.14" y="330" as="sourcePoint" />
            <mxPoint x="813.85" y="330" as="targetPoint" />
          </mxGeometry>
        </mxCell>
        <mxCell id="rUgsRewU7eDKofU_iwxV-16" value="&lt;font face=&quot;Times New Roman&quot;&gt;Laksamana Roid Arra&#39;fu&lt;/font&gt;" style="text;html=1;align=center;verticalAlign=middle;resizable=0;points=[];autosize=1;strokeColor=none;fillColor=none;" vertex="1" parent="1">
          <mxGeometry x="745" y="410" width="140" height="30" as="geometry" />
        </mxCell>
        <mxCell id="rUgsRewU7eDKofU_iwxV-18" value="" style="endArrow=none;html=1;rounded=0;strokeWidth=3;" edge="1" parent="1">
          <mxGeometry width="50" height="50" relative="1" as="geometry">
            <mxPoint x="580" y="369.83" as="sourcePoint" />
            <mxPoint x="690" y="369.83" as="targetPoint" />
          </mxGeometry>
        </mxCell>
        <mxCell id="rUgsRewU7eDKofU_iwxV-19" value="&lt;font face=&quot;Times New Roman&quot;&gt;&lt;span style=&quot;font-size: 16px;&quot;&gt;Design&lt;/span&gt;&lt;/font&gt;" style="text;html=1;align=center;verticalAlign=middle;resizable=0;points=[];autosize=1;strokeColor=none;fillColor=none;" vertex="1" parent="1">
          <mxGeometry x="600" y="340" width="70" height="30" as="geometry" />
        </mxCell>
        <mxCell id="rUgsRewU7eDKofU_iwxV-20" value="&lt;font face=&quot;Times New Roman&quot;&gt;Muhammad Sidiq Hidayatullah&lt;/font&gt;" style="text;html=1;align=center;verticalAlign=middle;resizable=0;points=[];autosize=1;strokeColor=none;fillColor=none;" vertex="1" parent="1">
          <mxGeometry x="550" y="380.83" width="170" height="30" as="geometry" />
        </mxCell>
        <mxCell id="rUgsRewU7eDKofU_iwxV-21" value="&lt;font face=&quot;Times New Roman&quot;&gt;Lucky Ismail&lt;/font&gt;" style="text;html=1;align=center;verticalAlign=middle;resizable=0;points=[];autosize=1;strokeColor=none;fillColor=none;" vertex="1" parent="1">
          <mxGeometry x="590" y="410.83" width="90" height="30" as="geometry" />
        </mxCell>
        <mxCell id="rUgsRewU7eDKofU_iwxV-22" value="&lt;font face=&quot;Times New Roman&quot;&gt;Bentar Satria Dewata&lt;/font&gt;" style="text;html=1;align=center;verticalAlign=middle;resizable=0;points=[];autosize=1;strokeColor=none;fillColor=none;" vertex="1" parent="1">
          <mxGeometry x="750" y="440" width="130" height="30" as="geometry" />
        </mxCell>
        <mxCell id="rUgsRewU7eDKofU_iwxV-23" value="" style="endArrow=none;html=1;rounded=0;strokeWidth=3;" edge="1" parent="1">
          <mxGeometry width="50" height="50" relative="1" as="geometry">
            <mxPoint x="220" y="369" as="sourcePoint" />
            <mxPoint x="330" y="369" as="targetPoint" />
          </mxGeometry>
        </mxCell>
        <mxCell id="rUgsRewU7eDKofU_iwxV-24" value="&lt;font face=&quot;Times New Roman&quot;&gt;&lt;span style=&quot;font-size: 16px;&quot;&gt;Mechanic&lt;/span&gt;&lt;/font&gt;" style="text;html=1;align=center;verticalAlign=middle;resizable=0;points=[];autosize=1;strokeColor=none;fillColor=none;" vertex="1" parent="1">
          <mxGeometry x="230" y="339.17" width="90" height="30" as="geometry" />
        </mxCell>
        <mxCell id="rUgsRewU7eDKofU_iwxV-25" value="&lt;font face=&quot;Times New Roman&quot;&gt;Kaka Pratama&lt;/font&gt;" style="text;html=1;align=center;verticalAlign=middle;resizable=0;points=[];autosize=1;strokeColor=none;fillColor=none;" vertex="1" parent="1">
          <mxGeometry x="230" y="380.66" width="90" height="30" as="geometry" />
        </mxCell>
        <mxCell id="rUgsRewU7eDKofU_iwxV-26" value="&lt;font face=&quot;Times New Roman&quot;&gt;Ahmad Zakarya&lt;/font&gt;" style="text;html=1;align=center;verticalAlign=middle;resizable=0;points=[];autosize=1;strokeColor=none;fillColor=none;" vertex="1" parent="1">
          <mxGeometry x="225" y="410.66" width="100" height="30" as="geometry" />
        </mxCell>
        <mxCell id="rUgsRewU7eDKofU_iwxV-27" value="&lt;font face=&quot;Times New Roman&quot;&gt;Syahid Sulam Muzakie Arziel&lt;/font&gt;" style="text;html=1;align=center;verticalAlign=middle;resizable=0;points=[];autosize=1;strokeColor=none;fillColor=none;" vertex="1" parent="1">
          <mxGeometry x="190" y="440.66" width="170" height="30" as="geometry" />
        </mxCell>
        <mxCell id="rUgsRewU7eDKofU_iwxV-28" value="&lt;font face=&quot;Times New Roman&quot;&gt;Okta Ferdiansyah&lt;/font&gt;" style="text;html=1;align=center;verticalAlign=middle;resizable=0;points=[];autosize=1;strokeColor=none;fillColor=none;" vertex="1" parent="1">
          <mxGeometry x="220" y="470.66" width="110" height="30" as="geometry" />
        </mxCell>
        <mxCell id="rUgsRewU7eDKofU_iwxV-31" value="" style="endArrow=none;html=1;rounded=0;strokeWidth=3;" edge="1" parent="1">
          <mxGeometry width="50" height="50" relative="1" as="geometry">
            <mxPoint x="390" y="369.8299999999999" as="sourcePoint" />
            <mxPoint x="500" y="369.8299999999999" as="targetPoint" />
          </mxGeometry>
        </mxCell>
        <mxCell id="rUgsRewU7eDKofU_iwxV-32" value="&lt;font face=&quot;Times New Roman&quot;&gt;&lt;span style=&quot;font-size: 16px;&quot;&gt;Non Teknis&lt;/span&gt;&lt;/font&gt;" style="text;html=1;align=center;verticalAlign=middle;resizable=0;points=[];autosize=1;strokeColor=none;fillColor=none;" vertex="1" parent="1">
          <mxGeometry x="395" y="340" width="100" height="30" as="geometry" />
        </mxCell>
        <mxCell id="rUgsRewU7eDKofU_iwxV-33" value="&lt;font face=&quot;Times New Roman&quot;&gt;Arrizal Ahmad Zaky&lt;/font&gt;" style="text;html=1;align=center;verticalAlign=middle;resizable=0;points=[];autosize=1;strokeColor=none;fillColor=none;" vertex="1" parent="1">
          <mxGeometry x="385" y="380.83" width="120" height="30" as="geometry" />
        </mxCell>
        <mxCell id="rUgsRewU7eDKofU_iwxV-34" value="&lt;font face=&quot;Times New Roman&quot;&gt;Dzikri Ibnu Fadhilah&lt;/font&gt;" style="text;html=1;align=center;verticalAlign=middle;resizable=0;points=[];autosize=1;strokeColor=none;fillColor=none;" vertex="1" parent="1">
          <mxGeometry x="385" y="410.83" width="120" height="30" as="geometry" />
        </mxCell>
      </root>
    </mxGraphModel>
  </diagram>
</mxfile>
